<?xml version="1.0" encoding="utf-8"?>
<!-- Generator: Adobe Illustrator 17.1.0, SVG Export Plug-In . SVG Version: 6.00 Build 0)  -->
<!DOCTYPE svg PUBLIC "-//W3C//DTD SVG 1.1//EN" "http://www.w3.org/Graphics/SVG/1.1/DTD/svg11.dtd">
<svg version="1.1" id="Слой_1" xmlns="http://www.w3.org/2000/svg" xmlns:xlink="http://www.w3.org/1999/xlink" x="0px" y="0px"
	 viewBox="0 0 595.3 516" enable-background="new 0 0 595.3 516" xml:space="preserve">
<linearGradient id="SVGID_1_" gradientUnits="userSpaceOnUse" x1="626" y1="149.5" x2="1223" y2="149.5">
	<stop  offset="0" style="stop-color:#3EB5F1"/>
	<stop  offset="0.3582" style="stop-color:#40B5F1"/>
	<stop  offset="0.4934" style="stop-color:#44B6F1"/>
	<stop  offset="0.5909" style="stop-color:#4CB8F2"/>
	<stop  offset="0.6704" style="stop-color:#56BAF2"/>
	<stop  offset="0.7387" style="stop-color:#64BEF3"/>
	<stop  offset="0.7995" style="stop-color:#74C4F4"/>
	<stop  offset="0.8547" style="stop-color:#89CBF6"/>
	<stop  offset="0.9055" style="stop-color:#A6D7F8"/>
	<stop  offset="0.9526" style="stop-color:#CCE8FB"/>
	<stop  offset="0.9948" style="stop-color:#F7FBFE"/>
	<stop  offset="1" style="stop-color:#FFFFFF"/>
</linearGradient>
<rect x="626" y="-1" display="none" fill="url(#SVGID_1_)" width="597" height="301"/>
<rect x="0.3" y="-0.3" fill="#3A436A" width="594.9" height="515.7"/>
<circle fill="#FFFFFF" cx="460.3" cy="218.6" r="36.3"/>
<polyline fill="#E2E2E2" points="75,259.7 182.8,209.5 205.2,210.6 286.3,162.6 373.8,198.8 395.2,189.2 519,260.8 "/>
<path fill="#FFFFFF" d="M75,259.7l106.7-44.8l12.6,3.8c7.6,2.3,15.8,1.2,22.5-3l61-38.2c14.9-11.1,13.8-5,31,2.1l56.6,24.5
	l-53.4,56.6H519"/>
<linearGradient id="SVGID_2_" gradientUnits="userSpaceOnUse" x1="502.3398" y1="234.3519" x2="312.359" y2="234.3519">
	<stop  offset="0" style="stop-color:#E2E2E2"/>
	<stop  offset="0.9897" style="stop-color:#FFFFFF"/>
</linearGradient>
<path fill="url(#SVGID_2_)" d="M312.4,260.5l37-31.4c12.8-10.9,28.4-18.1,45-20.9l0.3,0l107.8,52.3"/>
<g>
	<g>
		<path fill="#FFFFFF" d="M90.3,311.9c0,0.2-0.1,0.4-0.2,0.6c-0.1,0.2-0.4,0.3-0.7,0.4c-0.3,0.1-0.7,0.2-1.3,0.3
			c-0.5,0.1-1.2,0.1-2,0.1c-0.8,0-1.5,0-2-0.1c-0.5-0.1-1-0.1-1.3-0.3c-0.3-0.1-0.5-0.2-0.7-0.4c-0.1-0.2-0.2-0.4-0.2-0.6v-38.2
			c0-0.2,0.1-0.4,0.2-0.6c0.1-0.2,0.4-0.3,0.7-0.4c0.3-0.1,0.7-0.2,1.3-0.3s1.2-0.1,2-0.1c0.8,0,1.5,0,2,0.1
			c0.5,0.1,0.9,0.1,1.3,0.3c0.3,0.1,0.5,0.2,0.7,0.4c0.1,0.2,0.2,0.4,0.2,0.6V311.9z"/>
		<path fill="#FFFFFF" d="M126.1,276c0,0.6,0,1.1-0.1,1.5c-0.1,0.4-0.1,0.8-0.2,1c-0.1,0.3-0.2,0.5-0.4,0.6
			c-0.2,0.1-0.3,0.2-0.5,0.2h-10.1v32.6c0,0.2-0.1,0.4-0.2,0.6c-0.1,0.2-0.4,0.3-0.7,0.4c-0.3,0.1-0.7,0.2-1.3,0.3
			c-0.5,0.1-1.2,0.1-2,0.1c-0.8,0-1.5,0-2-0.1c-0.5-0.1-1-0.1-1.3-0.3c-0.3-0.1-0.5-0.2-0.7-0.4c-0.1-0.2-0.2-0.4-0.2-0.6v-32.6
			H96.3c-0.2,0-0.4-0.1-0.5-0.2s-0.3-0.3-0.4-0.6s-0.2-0.6-0.2-1c-0.1-0.4-0.1-0.9-0.1-1.5c0-0.6,0-1.2,0.1-1.6
			c0.1-0.4,0.1-0.8,0.2-1c0.1-0.3,0.2-0.4,0.4-0.6c0.1-0.1,0.3-0.2,0.5-0.2h28.5c0.2,0,0.4,0.1,0.5,0.2c0.2,0.1,0.3,0.3,0.4,0.6
			c0.1,0.3,0.2,0.6,0.2,1C126,274.8,126.1,275.3,126.1,276z"/>
		<path fill="#FFFFFF" d="M173.3,307.3c0,0.3,0,0.6,0,0.9s-0.1,0.5-0.1,0.7s-0.1,0.4-0.2,0.5c-0.1,0.1-0.2,0.3-0.4,0.5
			c-0.2,0.2-0.6,0.5-1.3,1c-0.7,0.4-1.5,0.8-2.5,1.3c-1,0.4-2.1,0.8-3.4,1s-2.7,0.4-4.2,0.4c-2.6,0-5-0.4-7.1-1.3s-3.9-2.2-5.4-3.9
			c-1.5-1.7-2.6-3.8-3.4-6.3c-0.8-2.5-1.2-5.4-1.2-8.7c0-3.4,0.4-6.3,1.3-9c0.9-2.6,2.1-4.9,3.6-6.7s3.4-3.2,5.6-4.2
			c2.2-1,4.6-1.4,7.2-1.4c1.2,0,2.3,0.1,3.4,0.3c1.1,0.2,2.1,0.5,3.1,0.8c0.9,0.3,1.8,0.7,2.5,1.2c0.7,0.4,1.2,0.8,1.5,1.1
			c0.3,0.3,0.5,0.5,0.5,0.6c0.1,0.1,0.2,0.3,0.2,0.5c0.1,0.2,0.1,0.4,0.1,0.7c0,0.3,0,0.6,0,1c0,0.4,0,0.8-0.1,1.1s-0.1,0.5-0.2,0.7
			c-0.1,0.2-0.2,0.3-0.3,0.4s-0.3,0.1-0.4,0.1c-0.3,0-0.7-0.2-1.2-0.6c-0.5-0.4-1.2-0.9-2-1.3c-0.8-0.5-1.8-0.9-3-1.3
			c-1.2-0.4-2.6-0.6-4.3-0.6c-1.8,0-3.4,0.4-4.9,1.1c-1.5,0.7-2.7,1.8-3.8,3.2c-1,1.4-1.9,3.1-2.4,5.1c-0.6,2-0.9,4.3-0.9,6.9
			c0,2.6,0.3,4.8,0.8,6.8c0.6,2,1.4,3.6,2.4,4.9c1,1.3,2.3,2.3,3.8,3s3.2,1,5.1,1c1.6,0,3-0.2,4.2-0.6c1.2-0.4,2.2-0.8,3.1-1.3
			c0.8-0.5,1.5-0.9,2.1-1.3s1-0.6,1.3-0.6c0.1,0,0.3,0,0.4,0.1s0.2,0.2,0.3,0.4s0.1,0.4,0.1,0.7
			C173.3,306.5,173.3,306.8,173.3,307.3z"/>
		<path fill="#FFFFFF" d="M185,312.3c0,0.2,0,0.3-0.1,0.4s-0.2,0.2-0.4,0.3s-0.4,0.1-0.8,0.2c-0.3,0-0.8,0.1-1.3,0.1
			c-0.5,0-0.9,0-1.3-0.1c-0.3,0-0.6-0.1-0.8-0.2c-0.2-0.1-0.3-0.2-0.4-0.3s-0.1-0.3-0.1-0.4v-41.8c0-0.2,0-0.3,0.1-0.4
			s0.2-0.2,0.4-0.3c0.2-0.1,0.5-0.1,0.8-0.2c0.3,0,0.8-0.1,1.3-0.1c0.5,0,0.9,0,1.3,0.1c0.3,0,0.6,0.1,0.8,0.2
			c0.2,0.1,0.3,0.2,0.4,0.3s0.1,0.3,0.1,0.4V312.3z"/>
		<path fill="#FFFFFF" d="M218.7,312.3c0,0.2,0,0.3-0.1,0.4c-0.1,0.1-0.2,0.2-0.4,0.3s-0.4,0.1-0.7,0.2c-0.3,0-0.7,0.1-1.1,0.1
			c-0.5,0-0.9,0-1.2-0.1c-0.3,0-0.5-0.1-0.7-0.2c-0.2-0.1-0.3-0.2-0.4-0.3s-0.1-0.3-0.1-0.4v-3.7c-1.6,1.8-3.2,3.1-4.8,3.9
			s-3.1,1.2-4.8,1.2c-1.9,0-3.5-0.3-4.7-0.9c-1.3-0.6-2.3-1.5-3.1-2.5c-0.8-1.1-1.4-2.3-1.7-3.8c-0.3-1.4-0.5-3.2-0.5-5.2v-17.1
			c0-0.2,0-0.3,0.1-0.4c0.1-0.1,0.2-0.2,0.4-0.3c0.2-0.1,0.5-0.2,0.8-0.2c0.3,0,0.8,0,1.3,0c0.5,0,0.9,0,1.3,0
			c0.3,0,0.6,0.1,0.8,0.2c0.2,0.1,0.3,0.2,0.4,0.3c0.1,0.1,0.1,0.3,0.1,0.4v16.4c0,1.6,0.1,3,0.4,4c0.2,1,0.6,1.8,1.1,2.5
			c0.5,0.7,1.1,1.2,1.9,1.6c0.8,0.4,1.6,0.6,2.6,0.6c1.3,0,2.6-0.5,3.9-1.4c1.3-0.9,2.6-2.3,4.1-4v-19.7c0-0.2,0-0.3,0.1-0.4
			c0.1-0.1,0.2-0.2,0.4-0.3c0.2-0.1,0.5-0.2,0.8-0.2c0.3,0,0.7,0,1.3,0c0.5,0,0.9,0,1.3,0c0.3,0,0.6,0.1,0.8,0.2
			c0.2,0.1,0.3,0.2,0.4,0.3c0.1,0.1,0.1,0.3,0.1,0.4V312.3z"/>
		<path fill="#FFFFFF" d="M245.9,304.6c0,1.4-0.3,2.7-0.8,3.8c-0.5,1.1-1.3,2.1-2.3,2.8c-1,0.8-2.1,1.4-3.5,1.8
			c-1.4,0.4-2.8,0.6-4.5,0.6c-1,0-2-0.1-2.9-0.2c-0.9-0.2-1.7-0.4-2.4-0.6c-0.7-0.2-1.3-0.5-1.8-0.8c-0.5-0.3-0.9-0.5-1.1-0.7
			c-0.2-0.2-0.4-0.5-0.5-0.9c-0.1-0.4-0.2-0.9-0.2-1.5c0-0.4,0-0.7,0.1-1s0.1-0.5,0.2-0.7c0.1-0.2,0.2-0.3,0.3-0.4
			c0.1-0.1,0.2-0.1,0.4-0.1c0.2,0,0.6,0.1,1,0.4s1,0.6,1.7,0.9c0.7,0.3,1.4,0.6,2.3,0.9c0.9,0.3,1.9,0.4,3.1,0.4
			c0.9,0,1.7-0.1,2.4-0.3c0.7-0.2,1.3-0.5,1.8-0.8c0.5-0.4,0.9-0.8,1.2-1.4c0.3-0.6,0.4-1.2,0.4-2c0-0.8-0.2-1.5-0.6-2
			s-0.9-1-1.6-1.4s-1.4-0.8-2.3-1.1c-0.8-0.3-1.7-0.7-2.6-1c-0.9-0.4-1.8-0.8-2.6-1.2c-0.8-0.4-1.6-1-2.3-1.6
			c-0.7-0.6-1.2-1.4-1.6-2.3c-0.4-0.9-0.6-2-0.6-3.2c0-1.1,0.2-2.2,0.6-3.2c0.4-1,1.1-1.9,1.9-2.7c0.9-0.8,1.9-1.4,3.2-1.8
			s2.8-0.7,4.5-0.7c0.8,0,1.5,0.1,2.3,0.2c0.8,0.1,1.4,0.3,2,0.5c0.6,0.2,1.1,0.4,1.5,0.6c0.4,0.2,0.8,0.4,1,0.6
			c0.2,0.2,0.4,0.3,0.4,0.4c0.1,0.1,0.1,0.3,0.2,0.4s0.1,0.3,0.1,0.6s0,0.5,0,0.8c0,0.4,0,0.7,0,0.9c0,0.3-0.1,0.5-0.2,0.6
			c-0.1,0.2-0.2,0.3-0.3,0.4c-0.1,0.1-0.2,0.1-0.3,0.1c-0.2,0-0.5-0.1-0.8-0.3c-0.4-0.2-0.8-0.5-1.4-0.7c-0.6-0.3-1.2-0.5-2-0.7
			c-0.8-0.2-1.6-0.3-2.6-0.3c-0.9,0-1.6,0.1-2.3,0.3c-0.7,0.2-1.2,0.5-1.6,0.8c-0.4,0.4-0.8,0.8-1,1.3c-0.2,0.5-0.3,1-0.3,1.6
			c0,0.8,0.2,1.5,0.6,2c0.4,0.6,1,1,1.6,1.5s1.4,0.8,2.3,1.1c0.9,0.3,1.7,0.7,2.6,1s1.8,0.8,2.6,1.2c0.9,0.4,1.6,1,2.3,1.6
			s1.2,1.4,1.6,2.3S245.9,303.4,245.9,304.6z"/>
		<path fill="#FFFFFF" d="M267.2,310.2c0,0.6,0,1.1-0.1,1.4c-0.1,0.4-0.2,0.6-0.4,0.8c-0.2,0.2-0.4,0.3-0.8,0.5
			c-0.3,0.1-0.7,0.3-1.1,0.4c-0.4,0.1-0.9,0.2-1.4,0.2c-0.5,0.1-1,0.1-1.4,0.1c-1.5,0-2.7-0.2-3.8-0.6c-1-0.4-1.9-1-2.6-1.8
			c-0.7-0.8-1.2-1.8-1.5-3c-0.3-1.2-0.5-2.6-0.5-4.2v-16.4h-3.9c-0.3,0-0.6-0.2-0.8-0.5c-0.2-0.3-0.3-0.9-0.3-1.6c0-0.4,0-0.7,0.1-1
			c0.1-0.3,0.1-0.5,0.2-0.7c0.1-0.2,0.2-0.3,0.3-0.4c0.1-0.1,0.3-0.1,0.5-0.1h3.9v-6.7c0-0.1,0-0.3,0.1-0.4c0.1-0.1,0.2-0.2,0.4-0.3
			c0.2-0.1,0.5-0.2,0.8-0.2c0.3,0,0.8-0.1,1.3-0.1c0.5,0,0.9,0,1.3,0.1c0.3,0,0.6,0.1,0.8,0.2s0.3,0.2,0.4,0.3
			c0.1,0.1,0.1,0.3,0.1,0.4v6.7h7.2c0.2,0,0.3,0,0.4,0.1s0.2,0.2,0.3,0.4c0.1,0.2,0.2,0.4,0.2,0.7c0,0.3,0.1,0.6,0.1,1
			c0,0.8-0.1,1.3-0.3,1.6c-0.2,0.3-0.4,0.5-0.8,0.5h-7.2v15.7c0,1.9,0.3,3.4,0.9,4.4c0.6,1,1.6,1.5,3.1,1.5c0.5,0,0.9,0,1.3-0.1
			s0.7-0.2,1-0.3c0.3-0.1,0.5-0.2,0.8-0.3c0.2-0.1,0.4-0.1,0.6-0.1c0.1,0,0.2,0,0.3,0.1c0.1,0.1,0.2,0.2,0.2,0.3
			c0.1,0.1,0.1,0.3,0.1,0.6C267.1,309.5,267.2,309.8,267.2,310.2z"/>
		<path fill="#FFFFFF" d="M297.3,297c0,0.8-0.2,1.4-0.6,1.7c-0.4,0.3-0.9,0.5-1.4,0.5h-18.5c0,1.6,0.2,3,0.5,4.2
			c0.3,1.3,0.8,2.3,1.6,3.2c0.7,0.9,1.7,1.6,2.9,2.1s2.6,0.7,4.3,0.7c1.3,0,2.5-0.1,3.6-0.3c1-0.2,2-0.5,2.7-0.7
			c0.8-0.3,1.4-0.5,1.9-0.7c0.5-0.2,0.9-0.3,1.1-0.3c0.1,0,0.3,0,0.4,0.1c0.1,0.1,0.2,0.2,0.3,0.3c0.1,0.1,0.1,0.3,0.1,0.6
			c0,0.3,0,0.6,0,1c0,0.3,0,0.5,0,0.7c0,0.2,0,0.4-0.1,0.5s-0.1,0.3-0.2,0.4c-0.1,0.1-0.2,0.2-0.3,0.4c-0.1,0.1-0.5,0.3-1,0.6
			c-0.6,0.3-1.3,0.5-2.2,0.8c-0.9,0.3-1.9,0.5-3.1,0.7c-1.2,0.2-2.4,0.3-3.8,0.3c-2.3,0-4.3-0.3-6.1-1c-1.7-0.6-3.2-1.6-4.4-2.9
			c-1.2-1.3-2.1-2.9-2.7-4.8c-0.6-1.9-0.9-4.1-0.9-6.7c0-2.4,0.3-4.6,0.9-6.5c0.6-1.9,1.5-3.6,2.7-4.9c1.2-1.3,2.6-2.4,4.3-3.1
			s3.5-1.1,5.6-1.1c2.2,0,4.1,0.4,5.6,1.1c1.6,0.7,2.8,1.7,3.8,2.9c1,1.2,1.7,2.6,2.2,4.2c0.5,1.6,0.7,3.3,0.7,5.2V297z
			 M292.1,295.4c0.1-2.7-0.5-4.8-1.8-6.4c-1.3-1.5-3.2-2.3-5.6-2.3c-1.3,0-2.4,0.2-3.4,0.7s-1.8,1.1-2.4,1.9
			c-0.7,0.8-1.2,1.7-1.5,2.8c-0.4,1.1-0.6,2.2-0.6,3.3H292.1z"/>
		<path fill="#FFFFFF" d="M321.6,286c0,0.5,0,0.8,0,1.2c0,0.3-0.1,0.6-0.1,0.7c-0.1,0.2-0.1,0.3-0.2,0.4c-0.1,0.1-0.2,0.1-0.4,0.1
			c-0.2,0-0.4,0-0.6-0.1c-0.2-0.1-0.5-0.2-0.8-0.3c-0.3-0.1-0.6-0.2-1-0.3c-0.4-0.1-0.8-0.1-1.2-0.1c-0.5,0-1,0.1-1.5,0.3
			c-0.5,0.2-1,0.6-1.6,1c-0.6,0.5-1.1,1.1-1.7,1.9c-0.6,0.8-1.3,1.8-2,2.9v18.5c0,0.2,0,0.3-0.1,0.4c-0.1,0.1-0.2,0.2-0.4,0.3
			s-0.4,0.1-0.8,0.2c-0.3,0-0.8,0.1-1.3,0.1c-0.5,0-0.9,0-1.3-0.1c-0.3,0-0.6-0.1-0.8-0.2c-0.2-0.1-0.3-0.2-0.4-0.3
			c-0.1-0.1-0.1-0.3-0.1-0.4v-28.1c0-0.2,0-0.3,0.1-0.4c0.1-0.1,0.2-0.2,0.4-0.3c0.2-0.1,0.4-0.2,0.7-0.2c0.3,0,0.7,0,1.2,0
			c0.5,0,0.8,0,1.1,0s0.5,0.1,0.7,0.2c0.2,0.1,0.3,0.2,0.4,0.3c0.1,0.1,0.1,0.3,0.1,0.4v4.1c0.8-1.1,1.5-2,2.2-2.8
			c0.7-0.7,1.3-1.3,1.9-1.7c0.6-0.4,1.2-0.7,1.8-0.8c0.6-0.2,1.2-0.2,1.8-0.2c0.3,0,0.6,0,0.9,0s0.7,0.1,1.1,0.2
			c0.4,0.1,0.7,0.2,1,0.3c0.3,0.1,0.5,0.2,0.6,0.3c0.1,0.1,0.2,0.2,0.3,0.3s0.1,0.2,0.1,0.4c0,0.1,0.1,0.4,0.1,0.6
			C321.6,285.1,321.6,285.5,321.6,286z"/>
		<path fill="#FFFFFF" d="M371.6,312c0,0.2,0,0.4-0.1,0.6c-0.1,0.2-0.3,0.3-0.6,0.4s-0.8,0.2-1.4,0.2c-0.6,0-1.4,0.1-2.5,0.1
			c-0.9,0-1.6,0-2.1-0.1c-0.5,0-0.9-0.1-1.2-0.2c-0.3-0.1-0.5-0.3-0.6-0.4c-0.1-0.2-0.2-0.4-0.3-0.6l-3.6-9c-0.4-1-0.9-1.9-1.3-2.7
			c-0.4-0.8-0.9-1.5-1.4-2c-0.5-0.5-1.1-0.9-1.8-1.2c-0.7-0.3-1.4-0.4-2.3-0.4h-2.6v15.4c0,0.2-0.1,0.4-0.2,0.6
			c-0.1,0.2-0.4,0.3-0.7,0.4c-0.3,0.1-0.7,0.2-1.3,0.3c-0.5,0.1-1.2,0.1-2,0.1c-0.8,0-1.5,0-2-0.1s-1-0.1-1.3-0.3
			c-0.3-0.1-0.5-0.2-0.7-0.4c-0.1-0.2-0.2-0.4-0.2-0.6v-36.7c0-0.9,0.2-1.6,0.7-2c0.5-0.4,1-0.6,1.7-0.6h10.5c1.1,0,1.9,0,2.6,0.1
			c0.7,0,1.3,0.1,1.9,0.2c1.6,0.2,3.1,0.6,4.4,1.2s2.4,1.3,3.3,2.2c0.9,0.9,1.6,2,2.1,3.2s0.7,2.7,0.7,4.3c0,1.4-0.2,2.6-0.5,3.7
			c-0.3,1.1-0.8,2.1-1.5,3c-0.7,0.9-1.5,1.6-2.5,2.3c-1,0.6-2.1,1.2-3.3,1.6c0.6,0.3,1.2,0.6,1.7,1.1c0.5,0.4,1,0.9,1.5,1.5
			s0.9,1.3,1.3,2s0.8,1.6,1.2,2.6l3.4,8c0.3,0.8,0.5,1.4,0.6,1.7S371.6,311.8,371.6,312z M361,284.5c0-1.3-0.3-2.5-0.9-3.4
			c-0.6-0.9-1.6-1.6-3-1.9c-0.4-0.1-0.9-0.2-1.4-0.3c-0.5-0.1-1.3-0.1-2.2-0.1h-3.7v11.5h4.2c1.2,0,2.2-0.1,3.1-0.4
			c0.9-0.3,1.6-0.7,2.2-1.2c0.6-0.5,1-1.1,1.3-1.8C360.8,286.2,361,285.4,361,284.5z"/>
		<path fill="#FFFFFF" d="M400.9,312.1c0,0.3-0.1,0.5-0.3,0.7c-0.2,0.2-0.5,0.3-1,0.4c-0.4,0.1-1.1,0.1-2,0.1c-0.9,0-1.6,0-2-0.1
			c-0.4-0.1-0.7-0.2-0.9-0.4s-0.3-0.4-0.3-0.7v-2.2c-1.1,1.2-2.5,2.2-3.9,2.9c-1.5,0.7-3.1,1-4.9,1c-1.5,0-2.8-0.2-4.1-0.6
			c-1.2-0.4-2.3-1-3.2-1.7c-0.9-0.8-1.6-1.7-2.1-2.8c-0.5-1.1-0.8-2.4-0.8-3.9c0-1.6,0.3-3,1-4.2s1.6-2.2,2.8-3
			c1.3-0.8,2.8-1.4,4.7-1.7c1.9-0.4,4.1-0.6,6.5-0.6h2.7v-1.7c0-0.9-0.1-1.6-0.3-2.3s-0.5-1.2-0.9-1.6c-0.4-0.4-0.9-0.8-1.6-1
			c-0.7-0.2-1.5-0.3-2.5-0.3c-1.3,0-2.5,0.1-3.5,0.4c-1,0.3-1.9,0.6-2.7,1c-0.8,0.4-1.5,0.7-2,1c-0.5,0.3-1,0.4-1.3,0.4
			c-0.2,0-0.4-0.1-0.6-0.2c-0.2-0.1-0.3-0.4-0.4-0.6c-0.1-0.3-0.2-0.6-0.3-1s-0.1-0.8-0.1-1.3c0-0.6,0.1-1.2,0.2-1.5
			c0.1-0.4,0.3-0.7,0.6-1c0.3-0.3,0.8-0.6,1.5-1c0.7-0.4,1.6-0.7,2.6-1c1-0.3,2-0.6,3.2-0.8c1.2-0.2,2.4-0.3,3.6-0.3
			c2.2,0,4.1,0.2,5.6,0.6c1.6,0.4,2.8,1.1,3.8,2c1,0.9,1.7,2,2.2,3.4c0.5,1.4,0.7,3.1,0.7,5V312.1z M393.2,300.1h-3
			c-1.3,0-2.4,0.1-3.3,0.3c-0.9,0.2-1.6,0.5-2.2,0.8c-0.6,0.4-1,0.8-1.2,1.4c-0.3,0.5-0.4,1.1-0.4,1.8c0,1.2,0.4,2.1,1.1,2.8
			c0.7,0.7,1.8,1,3.1,1c1.1,0,2.1-0.3,3-0.8c0.9-0.6,1.9-1.4,2.8-2.5V300.1z"/>
		<path fill="#FFFFFF" d="M434.7,312c0,0.2-0.1,0.4-0.2,0.5c-0.1,0.2-0.3,0.3-0.6,0.4c-0.3,0.1-0.7,0.2-1.2,0.2
			c-0.5,0.1-1.2,0.1-2,0.1c-0.9,0-1.5,0-2.1-0.1c-0.5,0-1-0.1-1.3-0.2s-0.6-0.2-0.8-0.4c-0.2-0.2-0.4-0.4-0.5-0.7l-9.3-14.7V312
			c0,0.2-0.1,0.4-0.2,0.5c-0.1,0.2-0.3,0.3-0.6,0.4c-0.3,0.1-0.7,0.2-1.2,0.2c-0.5,0.1-1.1,0.1-1.9,0.1c-0.8,0-1.4,0-1.9-0.1
			c-0.5-0.1-0.9-0.1-1.2-0.2c-0.3-0.1-0.5-0.2-0.6-0.4c-0.1-0.2-0.2-0.3-0.2-0.5v-41.1c0-0.2,0.1-0.4,0.2-0.6
			c0.1-0.2,0.3-0.3,0.6-0.4c0.3-0.1,0.7-0.2,1.2-0.3c0.5-0.1,1.1-0.1,1.9-0.1c0.8,0,1.4,0,1.9,0.1c0.5,0.1,0.9,0.2,1.2,0.3
			c0.3,0.1,0.5,0.3,0.6,0.4c0.1,0.2,0.2,0.4,0.2,0.6v24.5l8.3-11.1c0.2-0.3,0.4-0.5,0.6-0.7c0.2-0.2,0.5-0.3,0.8-0.4
			c0.3-0.1,0.8-0.2,1.3-0.2c0.5-0.1,1.2-0.1,2-0.1c0.8,0,1.4,0,2,0.1c0.5,0.1,1,0.1,1.3,0.2c0.3,0.1,0.5,0.2,0.7,0.4
			s0.2,0.3,0.2,0.6c0,0.3-0.1,0.6-0.2,1c-0.2,0.4-0.4,0.7-0.7,1.1l-8.2,9.3l9.4,14.6c0.3,0.4,0.4,0.8,0.5,1.1S434.7,311.8,434.7,312
			z"/>
		<path fill="#FFFFFF" d="M466.2,312c0,0.2-0.1,0.4-0.2,0.5c-0.1,0.2-0.3,0.3-0.6,0.4c-0.3,0.1-0.7,0.2-1.2,0.2
			c-0.5,0.1-1.1,0.1-1.9,0.1c-0.8,0-1.4,0-1.9-0.1c-0.5-0.1-0.9-0.1-1.2-0.2c-0.3-0.1-0.5-0.2-0.6-0.4c-0.1-0.2-0.2-0.3-0.2-0.5
			v-15.9c0-1.4-0.1-2.4-0.3-3.2c-0.2-0.8-0.5-1.4-0.9-2c-0.4-0.6-0.9-1-1.5-1.3c-0.6-0.3-1.3-0.5-2.1-0.5c-1,0-2,0.4-3,1.1
			c-1,0.7-2.1,1.8-3.2,3.2V312c0,0.2-0.1,0.4-0.2,0.5c-0.1,0.2-0.3,0.3-0.6,0.4c-0.3,0.1-0.7,0.2-1.2,0.2c-0.5,0.1-1.1,0.1-1.9,0.1
			c-0.8,0-1.4,0-1.9-0.1c-0.5-0.1-0.9-0.1-1.2-0.2c-0.3-0.1-0.5-0.2-0.6-0.4c-0.1-0.2-0.2-0.3-0.2-0.5v-41.1c0-0.2,0.1-0.4,0.2-0.6
			c0.1-0.2,0.3-0.3,0.6-0.4c0.3-0.1,0.7-0.2,1.2-0.3c0.5-0.1,1.1-0.1,1.9-0.1c0.8,0,1.4,0,1.9,0.1c0.5,0.1,0.9,0.2,1.2,0.3
			c0.3,0.1,0.5,0.3,0.6,0.4c0.1,0.2,0.2,0.4,0.2,0.6v15.4c1.4-1.3,2.7-2.3,4.1-3c1.4-0.7,2.9-1,4.4-1c1.9,0,3.5,0.3,4.8,0.9
			c1.3,0.6,2.4,1.5,3.2,2.6c0.8,1.1,1.4,2.4,1.7,3.8c0.4,1.4,0.5,3.2,0.5,5.3V312z"/>
		<path fill="#FFFFFF" d="M482.3,274.7c0,1.6-0.3,2.7-1,3.3c-0.6,0.6-1.8,0.9-3.6,0.9c-1.8,0-3-0.3-3.6-0.9
			c-0.6-0.6-0.9-1.6-0.9-3.2c0-1.6,0.3-2.7,1-3.3c0.6-0.6,1.8-0.9,3.6-0.9c1.8,0,2.9,0.3,3.6,0.9S482.3,273.1,482.3,274.7z
			 M481.8,312c0,0.2-0.1,0.4-0.2,0.5c-0.1,0.2-0.3,0.3-0.6,0.4c-0.3,0.1-0.7,0.2-1.2,0.2c-0.5,0.1-1.1,0.1-1.9,0.1
			c-0.8,0-1.4,0-1.9-0.1c-0.5-0.1-0.9-0.1-1.2-0.2c-0.3-0.1-0.5-0.2-0.6-0.4c-0.1-0.2-0.2-0.3-0.2-0.5v-27.8c0-0.2,0.1-0.4,0.2-0.5
			c0.1-0.2,0.3-0.3,0.6-0.4c0.3-0.1,0.7-0.2,1.2-0.3c0.5-0.1,1.1-0.1,1.9-0.1c0.8,0,1.4,0,1.9,0.1s0.9,0.2,1.2,0.3
			c0.3,0.1,0.5,0.3,0.6,0.4s0.2,0.3,0.2,0.5V312z"/>
		<path fill="#FFFFFF" d="M515.3,284.1c0,0.1,0,0.2,0,0.4c0,0.1,0,0.3-0.1,0.5c0,0.2-0.1,0.4-0.1,0.6c-0.1,0.2-0.1,0.5-0.2,0.8
			l-8.4,25.2c-0.1,0.4-0.2,0.6-0.4,0.9c-0.2,0.2-0.5,0.4-0.9,0.5s-1,0.2-1.7,0.3c-0.7,0-1.6,0.1-2.7,0.1c-1.1,0-2,0-2.7-0.1
			c-0.7-0.1-1.2-0.1-1.6-0.3c-0.4-0.1-0.7-0.3-0.9-0.5c-0.2-0.2-0.3-0.5-0.4-0.8l-8.4-25.2c-0.1-0.4-0.2-0.8-0.3-1.1
			c-0.1-0.3-0.1-0.6-0.1-0.7c0-0.1,0-0.3,0-0.4c0-0.2,0.1-0.4,0.2-0.5c0.1-0.2,0.3-0.3,0.6-0.4c0.3-0.1,0.7-0.2,1.2-0.2
			c0.5,0,1.2-0.1,1.9-0.1c0.9,0,1.5,0,2.1,0.1c0.5,0.1,0.9,0.1,1.2,0.2c0.3,0.1,0.5,0.2,0.6,0.4s0.2,0.4,0.3,0.6l6.3,20.5l0.2,0.8
			l0.2-0.8l6.3-20.5c0.1-0.3,0.2-0.5,0.3-0.6c0.1-0.2,0.3-0.3,0.6-0.4s0.7-0.2,1.2-0.2c0.5-0.1,1.1-0.1,1.9-0.1c0.8,0,1.4,0,1.9,0.1
			c0.5,0,0.9,0.1,1.1,0.2c0.3,0.1,0.5,0.2,0.6,0.4C515.2,283.7,515.3,283.9,515.3,284.1z"/>
	</g>
</g>
<rect x="626.7" y="1000.3" display="none" fill="#3A436A" width="597" height="301"/>
</svg>
